<?xml version="1.0" encoding="UTF-8"?>
<svg width="29px" height="20px" viewBox="0 0 23 15" version="1.1" xmlns="http://www.w3.org/2000/svg" xmlns:xlink="http://www.w3.org/1999/xlink">
    <!-- Generator: Sketch 50 (54983) - http://www.bohemiancoding.com/sketch -->
    <title>icon/social/behance</title>
    <desc>Created with Sketch.</desc>
    <defs></defs>
    <g id="Page-1" stroke="none" stroke-width="1" fill="none" fill-rule="evenodd">
        <g id="layout/home/2-copy-2" transform="translate(-595.000000, -442.000000)" fill="#324C5B">
            <g id="Header-Copy">
                <g id="text" transform="translate(442.000000, 270.000000)">
                    <g id="text-header">
                        <g id="social" transform="translate(97.000000, 168.000000)">
                            <g id="icon/social/behance" transform="translate(56.385003, 4.000000)">
                                <path d="M10.0304417,12.2987812 C10.3714417,11.7109688 10.5419417,11.0359688 10.5419417,10.2869063 C10.5419417,9.56971875 10.395275,8.95846875 10.106525,8.47003125 C10.106525,8.46909375 10.106525,8.46815625 10.1056083,8.46721875 C9.82694167,7.99003125 9.416275,7.64784375 8.84885833,7.42096875 C8.68294167,7.35534375 8.57019167,7.19596875 8.55919167,7.01409375 C8.547275,6.83221875 8.640775,6.65971875 8.79660833,6.57346875 C9.171525,6.36440625 9.452025,6.13753125 9.63260833,5.89846875 C9.969025,5.45596875 10.131275,4.87284375 10.131275,4.11440625 C10.131275,3.37659375 9.95985833,2.74190625 9.62160833,2.22815625 C9.05510833,1.38628125 8.08619167,0.96253125 6.66260833,0.93721875 L0.916941667,0.93721875 L0.916941667,14.0622187 L6.251025,14.0622187 C6.86519167,14.0622187 7.44269167,14.0022187 7.96794167,13.8831563 C8.45285833,13.7734687 8.87635833,13.5681563 9.22835833,13.2728437 C9.54644167,13.0131562 9.815025,12.6869062 10.0304417,12.2987812 Z M9.91310833,6.93440625 C10.3173583,7.21190625 10.645525,7.56346875 10.8921083,7.98628125 C11.2679417,8.62284375 11.4586083,9.39721875 11.4586083,10.2869063 C11.4586083,11.2056562 11.245025,12.0419062 10.8233583,12.7694062 C10.5538583,13.2540937 10.2101083,13.6703437 9.80494167,14.0012813 C9.34569167,14.3875312 8.79294167,14.6575312 8.16594167,14.7990938 C7.57560833,14.9322187 6.93210833,14.9997187 6.251025,14.9997187 L0.458608333,14.9997187 C0.205608333,14.9997187 0.000275,14.7906563 0.000275,14.5309687 L0.000275,0.46846875 C0.000275,0.20971875 0.205608333,-0.00028125 0.458608333,-0.00028125 L6.66994167,-0.00028125 C8.396025,0.03065625 9.64085833,0.60253125 10.3796917,1.70128125 C10.824275,2.37628125 11.0479417,3.18628125 11.0479417,4.11440625 C11.0479417,5.07534375 10.816025,5.86940625 10.356775,6.47221875 C10.235775,6.63346875 10.087275,6.78815625 9.91310833,6.93440625 Z" id="Fill-4"></path>
                                <path d="M7.03871667,5.37459375 C6.76555,5.54053125 6.3888,5.62490625 5.91855,5.62490625 L3.66721667,5.62490625 L3.66721667,3.74990625 L5.59221667,3.74990625 C6.15138333,3.74990625 6.61155,3.80990625 6.9333,3.91584375 C7.1313,3.99740625 7.33388333,4.14928125 7.33388333,4.65646875 C7.33388333,5.14021875 7.16521667,5.29771875 7.03871667,5.37459375 M7.2468,3.03553125 C6.80405,2.88740625 6.24763333,2.81240625 5.59221667,2.81240625 L3.20888333,2.81240625 C2.95496667,2.81240625 2.75055,3.02240625 2.75055,3.28115625 L2.75055,6.09365625 C2.75055,6.35240625 2.95496667,6.56240625 3.20888333,6.56240625 L5.91855,6.56240625 C6.55563333,6.56240625 7.09005,6.43396875 7.50713333,6.18084375 C7.8463,5.97459375 8.25055,5.54334375 8.25055,4.65646875 C8.25055,3.65709375 7.7198,3.22865625 7.2468,3.03553125" id="Fill-6"></path>
                                <path d="M6.79570833,11.0810625 C6.57020833,11.1935625 6.224625,11.2498125 5.76904167,11.2498125 L3.667125,11.2498125 L3.667125,8.9060625 L5.80479167,8.9060625 C6.37220833,8.9116875 6.675625,8.9998125 6.83329167,9.0729375 C7.066125,9.1816875 7.33379167,9.3804375 7.33379167,9.9654375 C7.33379167,10.7210625 7.024875,10.9648125 6.79570833,11.0810625 M7.21279167,8.22075 C6.865375,8.0566875 6.40795833,7.975125 5.809375,7.9685625 L3.20879167,7.9685625 C2.95579167,7.9685625 2.75045833,8.1785625 2.75045833,8.4373125 L2.75045833,11.7185625 C2.75045833,11.97825 2.95579167,12.1873125 3.20879167,12.1873125 L5.76904167,12.1873125 C6.37404167,12.1873125 6.840625,12.1010625 7.19904167,11.9229375 C7.67845833,11.680125 8.25045833,11.1429375 8.25045833,9.9654375 C8.25045833,8.9191875 7.684875,8.43825 7.21279167,8.22075" id="Fill-8"></path>
                                <path d="M15.6105583,7.5 C15.955225,6.915 16.447475,6.5625 16.958975,6.5625 C17.4695583,6.5625 17.9618083,6.915 18.306475,7.5 L15.6105583,7.5 Z M16.958975,5.625 C15.8708917,5.625 14.9148083,6.465 14.4638083,7.816875 C14.415225,7.9603125 14.4381417,8.11875 14.5243083,8.2415625 C14.610475,8.364375 14.7498083,8.4375 14.8973917,8.4375 L19.0205583,8.4375 C19.1681417,8.4375 19.307475,8.364375 19.392725,8.2415625 C19.4788917,8.11875 19.5018083,7.9603125 19.4541417,7.816875 C19.002225,6.465 18.0461417,5.625 16.958975,5.625 Z" id="Fill-10"></path>
                                <path d="M14.700125,9.375 C14.5699583,9.375 14.447125,9.43125 14.3600417,9.5296875 C14.2729583,9.6290625 14.2307917,9.7603125 14.243625,9.8925 C14.4342917,11.765625 15.5755417,13.125 16.9587917,13.125 C17.6389583,13.125 18.277875,12.7940625 18.7802083,12.1875 L20.255125,12.1875 C19.4832917,13.359375 18.272375,14.0625 16.9587917,14.0625 C14.683625,14.0625 12.8337917,11.9596875 12.8337917,9.375 C12.8337917,6.7903125 14.683625,4.6875 16.9587917,4.6875 C19.2330417,4.6875 21.0837917,6.7903125 21.0837917,9.375 L14.700125,9.375 Z M16.9587917,3.75 C14.1785417,3.75 11.917125,6.2728125 11.917125,9.375 C11.917125,12.4771875 14.1785417,15 16.9587917,15 C18.8654583,15 20.587875,13.81875 21.4532083,11.9165625 C21.5192083,11.77125 21.5082083,11.6015625 21.423875,11.4665625 C21.3395417,11.3315625 21.1937917,11.25 21.0379583,11.25 L18.5574583,11.25 C18.4107917,11.25 18.2732917,11.32125 18.1880417,11.4421875 C17.843375,11.923125 17.4070417,12.1875 16.9587917,12.1875 C16.1860417,12.1875 15.4994583,11.41125 15.241875,10.3125 L21.5210417,10.3125 C21.759375,10.3125 21.9582917,10.125 21.9775417,9.883125 C21.9912917,9.7153125 22.0004583,9.5465625 22.0004583,9.375 C22.0004583,6.2728125 19.7390417,3.75 16.9587917,3.75 Z" id="Fill-12"></path>
                                <path d="M14.6670333,1.875 L19.2503667,1.875 L19.2503667,0.9375 L14.6670333,0.9375 L14.6670333,1.875 Z M14.2087,2.8125 L19.7087,2.8125 C19.9617,2.8125 20.1670333,2.6025 20.1670333,2.34375 L20.1670333,0.46875 C20.1670333,0.21 19.9617,0 19.7087,0 L14.2087,0 C13.9557,0 13.7503667,0.21 13.7503667,0.46875 L13.7503667,2.34375 C13.7503667,2.6025 13.9557,2.8125 14.2087,2.8125 Z" id="Fill-14"></path>
                            </g>
                        </g>
                    </g>
                </g>
            </g>
        </g>
    </g></svg>