<?xml version="1.0" encoding="UTF-8"?>
<svg width="22px" height="22px" viewBox="0 0 22 22" version="1.1" xmlns="http://www.w3.org/2000/svg" xmlns:xlink="http://www.w3.org/1999/xlink">
    <!-- Generator: Sketch 50 (54983) - http://www.bohemiancoding.com/sketch -->
    <title>icon/social/dribbble</title>
    <desc>Created with Sketch.</desc>
    <defs></defs>
    <g id="Page-1" stroke="none" stroke-width="1" fill="none" fill-rule="evenodd">
        <g id="layout/home/2-copy-2" transform="translate(-539.000000, -438.000000)" fill="#324C5B">
            <g id="Header-Copy">
                <g id="text" transform="translate(442.000000, 270.000000)">
                    <g id="text-header">
                        <g id="social" transform="translate(97.000000, 168.000000)">
                            <g id="icon/social/dribbble">
                                <path d="M15.9445,19.7782 C15.5494167,16.9897 14.8903333,14.3863667 13.9296667,11.8902833 C16.038,11.5923667 18.3626667,11.8178667 20.9531667,12.5420333 C20.4728333,15.6477 18.5799167,18.2877 15.9445,19.7782 M4.38625,18.59295 C6.86491667,14.9427833 9.66991667,12.7932 13.03225,12.0562 C14.0268333,14.61095 14.6905,17.2867 15.081,20.2127 C13.8315833,20.7682 12.4529167,21.0835333 11,21.0835333 C8.46908333,21.0835333 6.15908333,20.1393667 4.38625,18.59295 M0.916666667,11.0002 C0.916666667,10.8040333 0.935,10.61245 0.946916667,10.41995 C5.43766667,10.29345 8.86233333,9.84153333 11.6141667,8.92486667 C12.0046667,9.6802 12.3621667,10.44195 12.6875833,11.2128667 C9.20241667,12.02595 6.26083333,14.2571167 3.71616667,17.9531167 C1.98641667,16.1417833 0.916666667,13.6961167 0.916666667,11.0002 M6.86216667,1.8152 C8.58733333,3.9272 10.0136667,5.99428333 11.1741667,8.09711667 C8.55891667,8.94778333 5.30016667,9.37311667 1.04133333,9.4987 C1.55741667,6.06761667 3.8005,3.20028333 6.86216667,1.8152 M17.8960833,3.6632 C16.2864167,5.53228333 14.4411667,6.87061667 12.0358333,7.79186667 C10.8735,5.65603333 9.45175,3.56511667 7.75408333,1.4632 C8.77433333,1.11486667 9.86425,0.916866667 11,0.916866667 C13.6684167,0.916866667 16.0911667,1.96553333 17.8960833,3.6632 M21.0521667,11.6207833 C18.3195833,10.8755333 15.8381667,10.6656167 13.5840833,11.0267833 C13.2449167,10.2146167 12.87275,9.41161667 12.4666667,8.61686667 C14.9389167,7.6562 16.8529167,6.26378333 18.5368333,4.32411667 C20.1153333,6.10428333 21.0833333,8.43811667 21.0833333,11.0002 C21.0833333,11.2092 21.065,11.4145333 21.0521667,11.6207833 M11,0.0002 C4.93533333,0.0002 0,4.93461667 0,11.0002 C0,17.0657833 4.93533333,22.0002 11,22.0002 C17.0655833,22.0002 22,17.0657833 22,11.0002 C22,4.93461667 17.0655833,0.0002 11,0.0002" id="Fill-1"></path>
                            </g>
                        </g>
                    </g>
                </g>
            </g>
        </g>
    </g>
</svg>