<?xml version="1.0" encoding="UTF-8"?>
<svg width="23px" height="22px" viewBox="0 0 23 22" version="1.1" xmlns="http://www.w3.org/2000/svg" xmlns:xlink="http://www.w3.org/1999/xlink">
    <!-- Generator: Sketch 50 (54983) - http://www.bohemiancoding.com/sketch -->
    <title>icon/social/git</title>
    <desc>Created with Sketch.</desc>
    <defs></defs>
    <g id="Page-1" stroke="none" stroke-width="1" fill="none" fill-rule="evenodd">
        <g id="layout/home/2-copy-2" transform="translate(-877.000000, -438.000000)" fill="#324C5B">
            <g id="Header-Copy">
                <g id="text" transform="translate(442.000000, 270.000000)">
                    <g id="text-header">
                        <g id="social" transform="translate(97.000000, 168.000000)">
                            <g id="icon/social/git" transform="translate(338.310021, 0.000000)">
                                <path d="M13.7504,20.9517333 L13.7504,17.8754 C13.7504,17.17415 13.6789,16.6058167 13.5285667,16.1319 C16.3839833,15.2803167 18.3337333,13.0427333 18.3337333,10.5420667 C18.3337333,9.29173333 17.8644,8.10373333 16.9734,7.08898333 C17.36665,5.95048333 17.1237333,4.55898333 16.3665667,3.8009 C16.2510667,3.6854 16.0833167,3.63865 15.9247333,3.68173333 C15.3124,3.84398333 14.4030667,4.31973333 13.7238167,5.01181667 C11.97665,4.44256667 10.02415,4.44256667 8.27698333,5.01181667 C7.59773333,4.31973333 6.6884,3.84398333 6.07606667,3.68173333 C5.91748333,3.63865 5.74973333,3.6854 5.63423333,3.8009 C4.87706667,4.55898333 4.63415,5.95048333 5.0274,7.08898333 C4.1364,8.10373333 3.66706667,9.29173333 3.66706667,10.5420667 C3.66706667,12.9739833 5.4949,15.1565667 8.2504,16.0613167 C8.24856667,16.1850667 8.22656667,16.3418167 8.13948333,16.42065 C8.03315,16.5169 7.84431667,16.50315 7.79206667,16.5004 C7.2769,16.5004 6.89006667,16.2125667 6.39873333,15.84865 C5.68831667,15.3215667 4.80373333,14.6670667 3.20873333,14.6670667 C2.95573333,14.6670667 2.7504,14.8714833 2.7504,15.1254 C2.7504,15.3784 2.95573333,15.5837333 3.20873333,15.5837333 C3.54423333,15.5837333 3.9989,16.2153167 4.43798333,16.82765 C5.21348333,17.9065667 6.17873333,19.2504 7.79206667,19.2504 L8.2504,19.2504 L8.2504,20.9517333 C4.0319,19.7325667 0.917066667,15.55715 0.917066667,11.0004 C0.917066667,5.4399 5.44081667,0.917066667 11.0004,0.917066667 C16.5599833,0.917066667 21.0837333,5.4399 21.0837333,11.0004 C21.0837333,15.55715 17.9689,19.7325667 13.7504,20.9517333 M11.0004,0.0004 C4.93481667,0.0004 0.0004,4.93481667 0.0004,11.0004 C0.0004,16.2602333 3.62123333,20.8820667 8.60973333,21.9894 C8.74448333,22.01965 8.88656667,21.9857333 8.99565,21.8995667 C9.10381667,21.8115667 9.16706667,21.6804833 9.16706667,21.5420667 L9.16706667,18.7920667 C9.16706667,18.53815 8.96173333,18.3337333 8.70873333,18.3337333 L7.79206667,18.3337333 C6.64806667,18.3337333 5.86981667,17.2493167 5.18231667,16.2923167 C5.11173333,16.1942333 5.04206667,16.0970667 4.97148333,16.0008167 C5.2969,16.17315 5.57648333,16.3812333 5.85331667,16.58565 C6.40423333,16.9935667 6.98081667,17.3950667 7.73523333,17.4134 C7.79298333,17.4189 8.32923333,17.4748167 8.74356667,17.1109 C8.93698333,16.9394833 9.16706667,16.6159 9.16706667,16.0420667 L9.16706667,15.72215 C9.16706667,15.5168167 9.0314,15.33715 8.8334,15.2812333 C6.29148333,14.5607333 4.58373333,12.6568167 4.58373333,10.5420667 C4.58373333,9.44206667 5.03565,8.39156667 5.88998333,7.50606667 C6.02198333,7.36948333 6.0559,7.16598333 5.97615,6.99456667 C5.63515,6.2594 5.70756667,5.2584 6.11181667,4.65798333 C6.64715,4.86698333 7.34106667,5.30423333 7.79206667,5.83956667 C7.91581667,5.98623333 8.11931667,6.04123333 8.2999,5.97431667 C10.01865,5.34456667 11.98215,5.34456667 13.7009,5.97431667 C13.8833167,6.04215 14.0859,5.98623333 14.2087333,5.83956667 C14.6597333,5.30423333 15.35365,4.86698333 15.8889833,4.65798333 C16.2932333,5.2584 16.36565,6.2594 16.02465,6.99456667 C15.9449,7.16598333 15.9788167,7.36948333 16.1108167,7.50606667 C16.96515,8.39156667 17.4170667,9.44206667 17.4170667,10.5420667 C17.4170667,12.7613167 15.5195667,14.7495667 12.8034833,15.37565 C12.66415,15.40865 12.54865,15.5030667 12.4899833,15.6323167 C12.4304,15.7615667 12.4340667,15.9109833 12.5009833,16.0365667 C12.7283167,16.4664833 12.8337333,17.0504 12.8337333,17.8754 L12.8337333,21.5420667 C12.8337333,21.6804833 12.8969833,21.8115667 13.00515,21.8995667 C13.08765,21.96465 13.1884833,22.0004 13.2920667,22.0004 C13.3250667,22.0004 13.3580667,21.9967333 13.3910667,21.9894 C18.3795667,20.8820667 22.0004,16.2602333 22.0004,11.0004 C22.0004,4.93481667 17.0659833,0.0004 11.0004,0.0004" id="Fill-231"></path>
                            </g>
                        </g>
                    </g>
                </g>
            </g>
        </g>
    </g>
</svg>