<?xml version="1.0" encoding="UTF-8"?>
<svg width="23px" height="19px" viewBox="0 0 23 19" version="1.1" xmlns="http://www.w3.org/2000/svg" xmlns:xlink="http://www.w3.org/1999/xlink">
    <!-- Generator: Sketch 50 (54983) - http://www.bohemiancoding.com/sketch -->
    <title>icon/social/twitter</title>
    <desc>Created with Sketch.</desc>
    <defs></defs>
    <g id="Page-1" stroke="none" stroke-width="1" fill="none" fill-rule="evenodd">
        <g id="layout/home/2-copy-2" transform="translate(-764.000000, -440.000000)" fill="#324C5B">
            <g id="Header-Copy">
                <g id="text" transform="translate(442.000000, 270.000000)">
                    <g id="text-header">
                        <g id="social" transform="translate(97.000000, 168.000000)">
                            <g id="icon/social/twitter" transform="translate(225.540014, 2.000000)">
                                <path d="M19.1042572,4.38984347 C18.9621762,4.48517521 18.8842609,4.65200576 18.9035106,4.82250292 C19.2215886,7.67237207 18.0381917,10.9888168 15.8153121,13.4766086 C13.5475165,16.0138996 10.5344834,17.4136263 7.33262017,17.4163763 L7.31795374,17.4163763 C5.60656561,17.4163763 4.0024257,17.1147979 2.45786812,16.4997249 C4.2719212,16.3053948 6.0254753,15.6023232 7.18412264,14.5472574 C7.32162035,14.4207595 7.37020287,14.2227628 7.30420397,14.0476824 C7.23820507,13.8716854 7.07320782,13.754354 6.88529429,13.7497707 C5.46815125,13.7176879 4.08767427,12.9220345 3.21318886,11.6937217 C3.83376184,11.7844702 4.43141854,11.7340543 4.88149437,11.3472275 C5.01990873,11.2280628 5.07490781,11.0392326 5.02174203,10.8650688 C4.9676596,10.6909051 4.81549547,10.5644072 4.6339985,10.5442408 C4.12984024,10.4874085 1.99862577,9.48825845 1.48621765,7.35246073 C2.03254188,7.66595551 2.68519766,7.90703482 3.29935409,7.78237023 C3.48543432,7.74478752 3.62843193,7.59629 3.66051473,7.40929312 C3.69168088,7.22229624 3.604599,7.03529936 3.4423517,6.93905096 C2.60361569,6.44222591 1.10305737,4.40175994 1.93904343,2.21004648 C3.28652097,3.70418823 6.20422231,6.15989729 10.9753928,6.41564302 C11.1248069,6.42114293 11.2595547,6.36156059 11.3521365,6.25156242 C11.4447183,6.14064761 11.479551,5.99215008 11.4456349,5.85098577 C11.221972,4.92150127 11.258638,2.57029047 12.8270285,1.63988932 C13.680431,1.13298111 14.3679195,0.916651382 15.1250736,0.916651382 C16.1838059,0.916651382 17.0225419,1.28697854 17.9309434,2.15413075 C18.0336084,2.25129579 18.1720228,2.29712836 18.3131871,2.27604538 C18.7641795,2.21004648 19.3865858,2.00563322 19.9494098,1.78105363 C19.6166653,2.22654621 19.217922,2.59870667 18.9273435,2.71603804 C18.7229302,2.79853667 18.6074322,3.01394974 18.6486815,3.22936282 C18.6917641,3.44477589 18.8796776,3.59968998 19.0987573,3.59968998 L19.1005906,3.59968998 C19.3948357,3.59877333 19.8082455,3.53094112 20.2271552,3.43560938 C19.8045789,3.86185227 19.3774193,4.20742984 19.1042572,4.38984347 M21.8771276,2.22746286 C21.73688,2.07621538 21.5113837,2.03771602 21.3280535,2.13396442 C21.197889,2.20271327 20.9421432,2.29254511 20.6442315,2.38054364 C21.0026422,1.91030148 21.2932207,1.37589372 21.4178853,0.897401703 C21.4664678,0.711321472 21.3931357,0.514241425 21.234555,0.404243259 C21.0750577,0.295161745 20.8651445,0.296995048 20.7083971,0.407909865 C20.4398183,0.599490004 19.194089,1.15131414 18.3901858,1.33006116 C17.3690361,0.412493122 16.3543031,0 15.1250736,0 C14.2038389,0 13.3513531,0.263078947 12.3586197,0.851569134 C10.6288985,1.87821868 10.3300702,4.09743168 10.4574847,5.45865898 C5.763313,5.0113331 3.12977358,2.27971199 2.19295587,1.09081514 C2.10037408,0.971650465 1.95187655,0.91573473 1.80154573,0.917568033 C1.65029825,0.92856785 1.51371719,1.01289978 1.43763513,1.14398092 C0.31748714,3.06253227 0.775812831,5.03699934 1.63654848,6.36614385 C1.49630082,6.26989545 1.35238655,6.16173059 1.20938893,6.04348256 C1.07189123,5.93073444 0.882144392,5.9050682 0.7217304,5.98206692 C0.561316408,6.05723233 0.458651453,6.21856297 0.458651453,6.39639334 C0.458651453,8.41119308 1.63838178,9.85033575 2.78969592,10.6679888 C2.66319803,10.6340727 2.54128339,10.5974066 2.42853527,10.5616572 C2.25620481,10.5094081 2.06920793,10.5598239 1.9491266,10.6945717 C1.82996192,10.8293194 1.79971242,11.0218162 1.87304454,11.1858968 C2.6091156,12.8404526 4.0739245,14.0742653 5.71381383,14.5032582 C4.28750428,15.3722437 2.32587032,15.8003199 0.511817233,15.5858234 C0.29732081,15.5574073 0.0910742492,15.6912384 0.0232420469,15.8984016 C-0.0455068067,16.1046481 0.0424917259,16.331061 0.231321911,16.4392259 C2.46245137,17.7133713 4.78066272,18.3330276 7.31703709,18.3330276 L7.33353682,18.3330276 C10.7993957,18.3302777 14.0544247,16.8223862 16.4982173,14.0870984 C18.8567613,11.4480591 20.0942407,8.06836546 19.8403283,4.99116677 C20.4471515,4.53834099 21.3638029,3.69135511 21.9302934,2.78203694 C22.0402916,2.60603988 22.018292,2.37871034 21.8771276,2.22746286" id="Fill-69"></path>
                            </g>
                        </g>
                    </g>
                </g>
            </g>
        </g>
    </g>
</svg>