<svg viewBox="0 0 300 151" version="1.1" xmlns="http://www.w3.org/2000/svg" xmlns:xlink="http://www.w3.org/1999/xlink" id="SkLAlRsl7"><style>@-webkit-keyframes ryNZIRx0oxm_H1SPzRjlQ_Animation{0%{-webkit-transform: rotate(-10deg);transform: rotate(-10deg);}3.33%{-webkit-transform: rotate(30deg);transform: rotate(30deg);}5.56%{-webkit-transform: rotate(-5deg);transform: rotate(-5deg);}6.67%{-webkit-transform: rotate(0deg);transform: rotate(0deg);}100%{-webkit-transform: rotate(0deg);transform: rotate(0deg);}}@keyframes ryNZIRx0oxm_H1SPzRjlQ_Animation{0%{-webkit-transform: rotate(-10deg);transform: rotate(-10deg);}3.33%{-webkit-transform: rotate(30deg);transform: rotate(30deg);}5.56%{-webkit-transform: rotate(-5deg);transform: rotate(-5deg);}6.67%{-webkit-transform: rotate(0deg);transform: rotate(0deg);}100%{-webkit-transform: rotate(0deg);transform: rotate(0deg);}}@-webkit-keyframes BJWZ8CgAilm_S1pkGAsxQ_Animation{0%{-webkit-transform: translate(0px, -1px);transform: translate(0px, -1px);}33.33%{-webkit-transform: translate(0px, 0px);transform: translate(0px, 0px);}83.33%{-webkit-transform: translate(0px, -1px);transform: translate(0px, -1px);}100%{-webkit-transform: translate(0px, -1px);transform: translate(0px, -1px);}}@keyframes BJWZ8CgAilm_S1pkGAsxQ_Animation{0%{-webkit-transform: translate(0px, -1px);transform: translate(0px, -1px);}33.33%{-webkit-transform: translate(0px, 0px);transform: translate(0px, 0px);}83.33%{-webkit-transform: translate(0px, -1px);transform: translate(0px, -1px);}100%{-webkit-transform: translate(0px, -1px);transform: translate(0px, -1px);}}@-webkit-keyframes rkKbIRxAjxQ_HJM8bCie7_Animation{0%{-webkit-transform: rotate(10deg);transform: rotate(10deg);}50%{-webkit-transform: rotate(-10deg);transform: rotate(-10deg);}100%{-webkit-transform: rotate(10deg);transform: rotate(10deg);}}@keyframes rkKbIRxAjxQ_HJM8bCie7_Animation{0%{-webkit-transform: rotate(10deg);transform: rotate(10deg);}50%{-webkit-transform: rotate(-10deg);transform: rotate(-10deg);}100%{-webkit-transform: rotate(10deg);transform: rotate(10deg);}}#SkLAlRsl7 *{-webkit-animation-duration: 3s;animation-duration: 3s;-webkit-animation-timing-function: cubic-bezier(0, 0, 1, 1);animation-timing-function: cubic-bezier(0, 0, 1, 1);}#BklIAgCjgX{stroke: none;stroke-width: 1;fill: none;}#ByMIRgAigQ{-webkit-transform:  translate(-31.000000px, -102.000000px);transform:  translate(-31.000000px, -102.000000px);}#ByELClCslQ{fill: #FDFDFD;}#BySL0gAsgQ{fill: #6C63FF;opacity: 0.1;}#Bk8LCeAseQ{-webkit-transform:  translate(109.000000px, 161.000000px);transform:  translate(109.000000px, 161.000000px);fill: #6C63FF;opacity: 0.2;}#B1Re80xRjeX{fill: url(#linearGradient-1);}#SkJZUAgCsxX{fill: #F7C4A7;}#Hyg-LAeCoxm{fill: #000000;opacity: 0.1;}#BJWZ8CgAilm{-webkit-transform:  translate(137.000000px, 195.000000px);transform:  translate(137.000000px, 195.000000px);}#rkzW8CeCjem{fill: #6C63FF;opacity: 0.2;}#rymb80eAjgX{fill: #F7C4A7;}#ryNZIRx0oxm{fill: #F7C4A7;}#ryr-IRx0je7{fill: #000000;opacity: 0.1;}#SJIZ8ClAjxQ{fill: #575988;}#HyDW8RxRoxQ{fill: #000000;opacity: 0.1;}#BJd-ICxRoxm{fill: #000000;opacity: 0.1;}#rkKbIRxAjxQ{-webkit-transform:  translate(163.000000px, 167.000000px);transform:  translate(163.000000px, 167.000000px);}#rk9bLCgRslX{fill: #E14B5A;}#H1o-IReCjg7{fill: #E14B5A;}#BynWIRg0ilm{fill: #F7C4A7;}#Sy6-ICx0ieQ{fill: #000000;}#By0WU0xCsxQ{fill: #000000;}#S1JG8Rx0jlX{fill: #632652;}#rylMU0eAjlm{fill: #632652;}#rkZfLAl0jxm{fill: #000000;opacity: 0.1;}#SkMGUCxRiem{fill: #E14B5A;}#BkXG8Rx0oeQ{stroke: #000000;opacity: 0.1;}#ByEG8AxAslm{fill: #6A5C99;}#SJHG8CxRjlQ{fill: #FFD037;}#SyIGLReCix7{fill: #6A5C99;}#SJPz8RgCil7{fill: #6A5C99;}#S1uMLAg0jl7{fill: #FFD037;}#BkYML0xAol7{fill: #6A5C99;}#HkczIAeAogm{fill: #FFD037;}#BJozU0eCoxQ{-webkit-transform:  translate(153.000000px, 213.000000px);transform:  translate(153.000000px, 213.000000px);}#ry3zLAxCjgX{fill: #535461;}#Bkaf80xCix7{fill: #FFFFFF;}#HyRMUCg0ie7{fill: #535461;}#BJkmIRxCjeQ{-webkit-transform:  translate(77.000000px, 152.000000px);transform:  translate(77.000000px, 152.000000px);fill: #6C63FF;opacity: 0.1;}#Sy5NLRe0jlQ{-webkit-transform:  translate(239.000000px, 216.000000px);transform:  translate(239.000000px, 216.000000px);}#ryj4IAxAseQ{fill: url(#linearGradient-2);}#S13EIAlCsx7{fill: #6C63FF;}#H1TV8AeRoxX{fill: #000000;opacity: 0.1;}#ryCV80xCoxX{fill: #6C63FF;}#S1yBUCgAieQ{fill: #EEEEEE;}#S1lrLRlRjgQ{-webkit-transform:  translate(98.000000px, 221.000000px);transform:  translate(98.000000px, 221.000000px);}#ByzSUCl0jxm{fill: url(#linearGradient-3);}#S1mHLCg0igm{fill: #535461;}#ry4rI0e0igm{fill: #3AD29F;}#HySBL0lRseQ{fill: #535461;}#Hy8HLRg0jl7{fill: #4D8AF0;}#BkvrICgCoem{fill: #535461;}#r1drL0xCie7{fill: #F55F44;}#HJFHIAx0se7{fill: #6C63FF;}#BJqrICeCoxX{fill: #9D97F4;}#BJjrICxCjgQ{fill: #D6D6E3;}#rkKbIRxAjxQ_HJM8bCie7{-webkit-animation-name: rkKbIRxAjxQ_HJM8bCie7_Animation;animation-name: rkKbIRxAjxQ_HJM8bCie7_Animation;-webkit-transform-origin: 50% 50%;transform-origin: 50% 50%;transform-box: fill-box;-webkit-transform: rotate(10deg);transform: rotate(10deg);-webkit-animation-timing-function: cubic-bezier(0.42, 0, 1, 1);animation-timing-function: cubic-bezier(0.42, 0, 1, 1);}#BJWZ8CgAilm_S1pkGAsxQ{-webkit-animation-name: BJWZ8CgAilm_S1pkGAsxQ_Animation;animation-name: BJWZ8CgAilm_S1pkGAsxQ_Animation;-webkit-transform-origin: 50% 50%;transform-origin: 50% 50%;transform-box: fill-box;-webkit-transform: translate(0px, -1px);transform: translate(0px, -1px);}#ryNZIRx0oxm_H1SPzRjlQ{-webkit-animation-name: ryNZIRx0oxm_H1SPzRjlQ_Animation;animation-name: ryNZIRx0oxm_H1SPzRjlQ_Animation;-webkit-transform-origin: 50% 50%;transform-origin: 50% 50%;transform-box: fill-box;-webkit-transform: rotate(-10deg);transform: rotate(-10deg);}</style>
    <!-- Generator: Sketch 50 (54983) - http://www.bohemiancoding.com/sketch -->
    <title>person</title>
    <desc>Created with Sketch.</desc>
    <defs>
        <linearGradient x1="49.9992867%" y1="100.009217%" x2="49.9992867%" y2="-2.61975384e-15%" id="linearGradient-1">
            <stop stop-color="#808080" stop-opacity="0.25" offset="0%"/>
            <stop stop-color="#808080" stop-opacity="0.12" offset="54%"/>
            <stop stop-color="#808080" stop-opacity="0.1" offset="100%"/>
        </linearGradient>
        <linearGradient x1="50.0036425%" y1="100%" x2="50.0036425%" y2="0%" id="linearGradient-2">
            <stop stop-color="#808080" stop-opacity="0.25" offset="0%"/>
            <stop stop-color="#808080" stop-opacity="0.12" offset="54%"/>
            <stop stop-color="#808080" stop-opacity="0.1" offset="100%"/>
        </linearGradient>
        <linearGradient x1="0%" y1="50.0028255%" x2="100.040833%" y2="50.0028255%" id="linearGradient-3">
            <stop stop-color="#808080" stop-opacity="0.25" offset="0%"/>
            <stop stop-color="#808080" stop-opacity="0.12" offset="54%"/>
            <stop stop-color="#808080" stop-opacity="0.1" offset="100%"/>
        </linearGradient>
    </defs>
    <g id="BklIAgCjgX" fill-rule="evenodd">
        <g id="SJWIAxAog7">
            <g id="ByMIRgAigQ">
                <g id="HJ7I0gAoxX">
                    <rect id="ByELClCslQ" x="0" y="0" width="356" height="253"/>
                    <path d="M287.918823,240.756849 L79.7566296,240.756849 C75.6273566,233.167299 73.0378048,223.707172 71.8756319,213.863346 C69.9432169,197.495424 71.5321464,179.981597 73.5213971,162.737983 C74.9373482,150.478304 76.8524654,137.36295 83.2081833,127.392578 C89.9320979,116.846753 100.530727,112.130529 109.743058,113.131319 C118.95539,114.132109 126.954402,120.041775 133.848824,127.264978 C142.465615,136.292105 150.237284,147.821207 161.389444,150.733506 C168.985664,152.717572 177.28121,150.420759 185.359298,149.122234 C198.846665,146.950519 212.146227,147.573511 225.351887,148.389155 C237.994131,149.169771 250.71298,150.140538 262.492804,154.644093 C270.827888,157.834112 277.225615,164.474354 285.004698,168.792763 C290.075434,171.607486 295.796074,171.965268 300.520853,175.718231 C306.340339,180.341881 311.376479,188.876119 309.046214,199.664637 C306.824678,209.927739 298.729292,215.744832 293.86613,223.711121 C290.709764,228.880891 288.844066,234.695745 287.918823,240.756849 Z" id="BySL0gAsgQ" fill-rule="nonzero"/>
                </g>
                <g id="Bk8LCeAseQ" fill-rule="nonzero">
                    <rect id="Hkv80xCixQ" x="44" y="0" width="7" height="4"/>
                    <rect id="rkdIRg0sx7" x="104" y="0" width="7" height="4"/>
                    <rect id="HJK8ReRieX" x="105" y="39" width="7" height="4"/>
                    <rect id="S15URgCigm" x="13" y="44" width="7" height="4"/>
                    <rect id="Byo8AgAjx7" x="104" y="17" width="7" height="4"/>
                    <rect id="By2IAgRsxX" x="91" y="12" width="7" height="4"/>
                    <rect id="BJpIRxCslm" x="114" y="21" width="7" height="4"/>
                    <rect id="S1RLRg0jlX" x="105" y="21" width="7" height="4"/>
                    <rect id="HJJgUAeAsg7" x="96" y="17" width="7" height="4"/>
                    <rect id="r1xeU0l0jxQ" x="105" y="50" width="7" height="4"/>
                    <rect id="SJbxLAlAigQ" x="0" y="39" width="7" height="4"/>
                    <rect id="Skze8RxRje7" x="100" y="69" width="7" height="4"/>
                    <rect id="H17eLCgCixX" x="8" y="69" width="7" height="4"/>
                    <rect id="BkElL0x0ixm" x="49" y="5" width="7" height="4"/>
                    <rect id="HyBgLAeRixm" x="109" y="5" width="7" height="4"/>
                    <rect id="H18eUClCoxX" x="23" y="30" width="7" height="4"/>
                    <rect id="H1PeU0lRoxX" x="83" y="30" width="7" height="4"/>
                    <rect id="ry_gURlAjg7" x="88" y="34" width="7" height="4"/>
                    <rect id="BkFxLCeRix7" x="42" y="32" width="7" height="4"/>
                    <rect id="HycxLAeCjeQ" x="102" y="32" width="7" height="4"/>
                    <rect id="rJie8Al0ixm" x="28" y="39" width="7" height="4"/>
                    <rect id="HJngL0eCjeQ" x="110" y="69" width="7" height="4"/>
                    <rect id="Hy6l8CxRjl7" x="18" y="69" width="7" height="4"/>
                </g>
                <path d="M205.78511,213.942833 C205.326434,211.386637 205.045133,208.801693 204.943225,206.206563 C204.757667,201.827222 201.841947,198.037923 197.660509,196.741875 C196.916707,196.512692 196.097981,196.298516 195.193431,196.106166 C187.264997,194.420039 184.856497,195.89199 184.58268,196.085704 C184.350795,195.663561 184.149125,195.225467 183.979193,194.774726 C183.96557,194.728344 183.95331,194.681961 183.939687,194.638308 C185.508835,192.962605 186.464881,190.804041 186.651974,188.514499 C187.974742,187.172145 188.747151,185.551498 188.747151,183.80671 C188.747151,182.306111 188.174996,180.898276 187.173725,179.680063 L187.173725,177.309116 C187.173725,174.574968 186.089108,171.952804 184.158476,170.01947 C182.227845,168.086136 179.609347,167 176.879022,167 L176.043948,167 C173.313623,167 170.695125,168.086136 168.764493,170.01947 C166.833862,171.952804 165.749245,174.574968 165.749245,177.309116 L165.749245,179.864227 C164.840608,181.038787 164.325669,182.379777 164.325669,183.803982 C164.325669,185.511937 165.066746,187.099843 166.339109,188.425827 C166.512966,190.799242 167.512813,193.036358 169.164465,194.747442 C169.220318,195.13487 169.277534,195.550945 169.333387,195.990211 L155.152117,198.990045 C155.152117,198.990045 149.68395,199.215135 146.161109,206.493041 C143.181817,212.657775 137.253201,228.495917 135.49723,233.210526 C135.17982,234.064504 135,234.554245 135,234.554245 C135,234.554245 135.058578,234.495585 135.168922,234.394635 L135,234.854364 C135,234.854364 135.085823,234.767057 135.249296,234.623818 C135.001362,236.596424 134.965943,239.983685 137.54609,240.405217 C139.709381,240.75854 145.283805,240.904507 149.494593,240.963167 L149.78612,240.963167 C152.577419,241 154.701204,241 154.701204,241 L154.701204,240.963167 L199.988635,240.963167 L199.988635,240.497981 C199.989144,240.076072 199.904342,239.658427 199.739339,239.270218 L199.802003,239.193824 C200.044349,239.514276 200.205605,239.888727 200.271988,240.285169 C200.266768,240.323728 200.259492,240.36198 200.250192,240.39976 L200.277437,240.330187 C200.28807,240.454085 200.278872,240.578888 200.250192,240.69988 C200.250192,240.69988 206.060289,225.708895 205.997625,216.757139 C206.014299,215.814461 205.943153,214.872281 205.78511,213.942833 Z M169.569061,198.01602 C169.494021,197.588379 169.445793,197.156453 169.424659,196.722776 C169.424659,196.722776 169.424659,196.714591 169.424659,196.710499 C169.475064,197.132031 169.524105,197.568569 169.569061,198.01602 Z M151.965758,230.216149 L151.965758,233.788939 L149.731629,234.267767 L151.965758,230.216149 Z" id="B1Re80xRjeX" fill-rule="nonzero"/>
                <path d="M169.396569,192.561292 C169.396569,192.561292 171.896829,205.585117 169.396569,209.097548 C166.896308,212.60998 177.036254,214 177.036254,214 L187.531791,210.195443 L189,200.82942 C189,200.82942 182.610445,197.243611 183.934194,190 L169.396569,192.561292 Z" id="SkJZUAgCsxX" fill-rule="nonzero"/>
                <path d="M185,194.982312 C184.406341,193.383995 184.27327,191.663722 184.614597,190 L170,192.455302 C170,192.455302 170.210855,193.505678 170.449637,195.079249 C172.357942,196.962325 174.995319,198.01809 177.745299,197.999765 C180.495279,197.981441 183.116839,196.890634 184.997207,194.982312 L185,194.982312 Z" id="Hyg-LAeCoxm" fill-rule="nonzero"/>
                <g id="BJWZ8CgAilm_S1pkGAsxQ" data-animator-group="true" data-animator-type="0"><g id="BJWZ8CgAilm" fill-rule="nonzero">
                    <rect id="rkzW8CeCjem" x="59" y="4" width="7" height="4"/>
                    <path d="M62.9530717,41.158927 C62.9530717,41.158927 63.6026895,44.2191014 60.0680047,44.7684777 C57.9809338,45.102501 55.8584168,45.0749385 53.7792683,44.6868136 L53,37 L61.2225774,37 L62.9530717,41.158927 Z" id="rymb80eAjgX"/>
                    <g id="ryNZIRx0oxm_H1SPzRjlQ" data-animator-group="true" data-animator-type="1"><path d="M0.346578725,37.2062441 C0.346578725,37.2062441 -1.2287582,43.8036897 2.33778256,44.3997162 C5.90432332,44.9957427 19,45 19,45 L19,37.1948912 L13.0704539,38.500473 L7.50444701,33 L0.346578725,37.2062441 Z" id="ryNZIRx0oxm"/></g>
                    <path d="M33.5320392,1.63366254 L19.5876819,4.59731975 C19.5876819,4.59731975 14.2722653,4.81751672 10.8498976,11.9164452 C7.42752992,19.0153736 0,39.2901127 0,39.2901127 C0,39.2901127 6.33771798,32.8490054 13.7624924,39.7291218 L18.714179,30.7273592 L17.6216115,45 L55.9896051,45 L55.9896051,38.2652967 C55.9896051,38.2652967 63.9985517,42.583373 63.417135,44.9986151 C63.417135,44.9986151 70.2715147,27.2471393 68.7904176,19.1801751 C68.3445633,16.6863111 68.0711114,14.1643974 67.9720253,11.6325434 C67.7927988,7.35961829 64.9580873,3.66232123 60.8930699,2.3995048 C60.1711212,2.17653806 59.3775286,1.96742019 58.4957592,1.78046051 C50.2677479,0.0244243628 48.1625233,1.78046051 48.1625233,1.78046051 C48.1625233,1.78046051 46.5684495,6.99317349 46.5973826,9.35578994 C46.6332044,12.3928462 42.301512,14.4064712 42.301512,14.4064712 C42.301512,14.4064712 35.893528,12.8692471 35.6028196,11.625619 C35.3121113,10.3819909 33.0195107,3.09748762 33.5320392,1.63366254 Z" id="ryr-IRx0je7"/>
                    <path d="M33.5327474,0.63368248 L19.5886685,3.59743298 C19.5886685,3.59743298 14.2733581,3.81763688 10.8510587,10.9167888 C7.42875935,18.0159407 0,38.2940878 0,38.2940878 C0,38.2940878 6.33759143,31.8527777 13.7622176,38.7331107 L18.7138053,29.7310648 L17.6212597,44 L55.9898648,44 L55.9898648,37.2664697 C55.9898648,37.2664697 63.9986516,41.5846818 63.4172464,44 C63.4172464,44 70.2714894,26.2479654 68.7904218,18.1807474 C68.3445764,15.6868048 68.0711299,13.1648118 67.9720459,10.6328781 C67.7928229,6.35981846 64.958168,2.66240503 60.8932318,1.39954885 C60.1712974,1.1765751 59.3777208,0.967450644 58.4959689,0.780485075 C50.268122,-0.975606344 48.1629394,0.780485075 48.1629394,0.780485075 C48.1629394,0.780485075 46.5688974,5.99336213 46.5978299,8.35605295 C46.633651,11.3932047 42.3020451,13.4068932 42.3020451,13.4068932 C42.3020451,13.4068932 35.894189,11.8696207 35.6034865,10.6259535 C35.3127839,9.38228618 33.0202291,2.09755364 33.5327474,0.63368248 Z" id="SJIZ8ClAjxQ"/>
                    <path d="M21.028378,18 C21.028378,18 18.5946315,23.6692491 22.0018766,28.7713051 C25.4091218,33.8733611 19,36 19,36" id="HyDW8RxRoxQ"/>
                    <path d="M55.966,13 C55.966,13 59.547541,17.6563352 57.2054634,21.8187359 C54.8633858,25.9811365 55.0015384,36 55.0015384,36" id="BJd-ICxRoxm"/>
                </g></g>
                <g id="rkKbIRxAjxQ_HJM8bCie7" data-animator-group="true" data-animator-type="1"><g id="rkKbIRxAjxQ">
                    <path d="M13.5,1 C19.2989899,1 24,5.70742623 24,11.5143308 L24,16 L3,16 L3,11.5143308 C3,5.70742623 7.70101013,1 13.5,1 Z" id="rk9bLCgRslX" fill-rule="nonzero"/>
                    <ellipse id="H1o-IReCjg7" fill-rule="nonzero" cx="13.5" cy="17" rx="11.5" ry="8"/>
                    <path d="M24,21.021483 C23.9762388,26.4921911 19.5785096,30.9330265 14.1190843,30.9992509 C8.65965903,31.0654752 4.1559276,26.732617 4.0000003,21.2640885 C4.0000003,21.18322 4.0000003,21.1023515 4.0000003,21.021483 C3.99907208,17.1931289 6.17454082,13.6985908 9.60634544,12.0157979 C9.90598133,11.8689332 10.2139662,11.7369409 10.5303001,11.619821 C12.1755959,11.0137869 13.9502461,10.848462 15.6788424,11.1401871 C20.2393358,11.9183041 23.6707636,15.7309468 23.9735615,20.3564091 C23.9911872,20.5767061 24,20.7983974 24,21.021483 Z" id="BynWIRg0ilm" fill-rule="nonzero"/>
                    <path d="M10.4290281,12.0082148 L10.4427565,12 C10.1306633,12.1150072 9.82680722,12.2446185 9.53118817,12.3888339 C6.14538947,14.0412712 3.99908452,17.4727719 4.00000029,21.2320669 C4.00000029,21.3114767 4.00000029,21.3908864 4,21.4702962 C4.30678602,21.4620263 4.60842957,21.3897342 4.88548458,21.2580805 C7.29070701,20.1381293 8.72944736,16.7125574 9.30055041,14.3234195 C9.50647698,13.4677111 9.70004797,12.5038411 10.4290281,12.0082148 Z" id="Sy6-ICx0ieQ" fill-rule="nonzero"/>
                    <path d="M17.4512268,12.7543925 C16.6702362,12.3965766 15.8453823,12.1429302 14.9979548,12 C15.6929469,12.1594865 16.3135849,12.5483269 16.7593135,13.1035216 C16.9777558,13.3997945 17.1589501,13.7216603 17.2988411,14.061915 C14.6411439,12.903011 11.6073878,12.9655742 9,14.2330567 C9.61915258,15.5871297 11.5397611,16.3250926 12.8219973,16.8193498 C14.2259589,17.3597011 15.6445642,17.8539583 17.0778132,18.3021213 L15.8093055,17.2752712 L18.6744306,17.7298235 C18.7052641,17.1611591 18.6374572,16.5914535 18.4739954,16.0457894 C19.023133,16.4866504 19.7507402,16.6345168 20.3465544,17.0041828 C21.4626765,17.7065483 21.9280706,19.057883 22.5362404,20.2284921 C22.6968631,20.5379163 22.8863156,20.8541861 23.1759856,21.0499722 C22.9374064,17.447061 20.7404079,14.2634551 17.4512268,12.7543925 Z" id="By0WU0xCsxQ" fill-rule="nonzero"/>
                    <path d="M9.987215,12.0078069 L10,12 C9.70935437,12.1092959 9.42637974,12.2324707 9.15107611,12.3695244 C5.99795489,13.9399014 3.99914743,17.2009933 4.00000027,20.7736013 C4.00000027,20.8490675 4.00000027,20.9245338 4,21 C4.2857032,20.9921408 4.56661732,20.9234387 4.82463267,20.798323 C7.06456438,19.7339887 8.40443221,16.4785312 8.93628814,14.2080382 C9.12806311,13.4000289 9.30833159,12.4801214 9.987215,12.0078069 Z" id="S1JG8Rx0jlX" fill-rule="nonzero"/>
                    <path d="M18.3463103,12.7502269 C17.5750153,12.3943868 16.7604013,12.1421409 15.9234941,12 C16.6098583,12.1586058 17.2227915,12.5452991 17.6629866,13.0974281 C17.8787171,13.3920651 18.0576621,13.7121536 18.1958164,14.0505295 C15.5711128,12.8980247 12.5750187,12.9602425 10,14.2207262 C10.6114662,15.5673222 12.5082316,16.3012103 13.7745497,16.7927383 C15.1610821,17.3301059 16.5620763,17.8216339 17.9775324,18.2673222 L16.7247724,17.2461422 L19.5543289,17.6981846 C19.5847796,17.1326602 19.5178145,16.5661003 19.3563819,16.0234493 C19.8987023,16.4618759 20.6172768,16.6089259 21.2056944,16.9765507 C22.3079605,17.6750378 22.767577,19.0189107 23.3681968,20.183056 C23.5268255,20.4907716 23.713926,20.805295 24,21 C23.7643826,17.4169834 21.5946584,14.2509567 18.3463103,12.7502269 Z" id="rylMU0eAjlm" fill-rule="nonzero"/>
                    <path d="M3,19 C3,19 13.1998622,6.89466034 25,19 L23.9800138,16.2881408 C23.9800138,16.2881408 18.4431427,8.56967092 14.5106823,10.2354709 C10.5782219,11.9012709 6.71605789,13.0868047 6.71605789,13.0868047 L3,19 Z" id="rkZfLAl0jxm" fill-rule="nonzero"/>
                    <path d="M3,19 C3,19 13.1998622,6.89466034 25,19 L23.9800138,16.2881408 C23.9800138,16.2881408 18.4431427,8.56967092 14.5106823,10.2354709 C10.5782219,11.9012709 6.71605789,13.0868047 6.71605789,13.0868047 L3,19 Z" id="SkMGUCxRiem" fill-rule="nonzero"/>
                    <path d="M3,14 C3,14 13.1033411,2.88682687 24,13.7966357" id="BkXG8Rx0oeQ"/>
                    <rect id="ByEG8AxAslm" fill-rule="nonzero" x="26" y="13" width="1" height="6"/>
                    <path d="M24,17 C26.209139,17 28,18.5181288 28,20.3908356 L28,20.6091644 C28,22.4818712 26.209139,24 24,24 L24,17 Z" id="SJHG8CxRjlQ" fill-rule="nonzero"/>
                    <rect id="SyIGLReCix7" fill-rule="nonzero" x="24" y="16" width="2" height="8" rx="1"/>
                    <rect id="SJPz8RgCil7" fill-rule="nonzero" x="1" y="13" width="1" height="6"/>
                    <path d="M-1.95399252e-14,17 C2.209139,17 4,18.5181288 4,20.3908356 L4,20.6091644 C4,21.5084699 3.57857264,22.3709422 2.82842712,23.0068473 C2.07828161,23.6427523 1.06086596,24 -1.95399252e-14,24 L-1.95399252e-14,17 Z" id="S1uMLAg0jl7" fill-rule="nonzero"/>
                    <path d="M3,16 C3.55228475,16 4,16.3917508 4,16.875 L4,23.125 C4,23.6082492 3.55228475,24 3,24 C2.44771525,24 2,23.6082492 2,23.125 L2,16.875 C2,16.3917508 2.44771525,16 3,16 Z" id="BkYML0xAol7" fill-rule="nonzero"/>
                    <path d="M24.6238389,6.66137737 C23.2895024,3.77623057 20.383374,0.287672712 14.1191428,0.00841968912 L14.1191428,0 L14.0435888,0 L11.8241918,0.109455959 L11.8241918,0.120682211 C5.60178507,0.418177893 2.70914846,3.89410622 1.37885943,6.76943005 C0.492869358,8.71864942 0.0225057966,10.8440532 0,13 L0.766332832,12.9803541 L1.53266566,12.9621114 C1.56572992,11.0426884 1.99018286,9.15243301 2.77795651,7.41634283 C4.46712677,3.80710276 7.57563178,1.88881693 12.015775,1.71060017 L13.9788283,1.59693437 C18.4216699,1.77374784 21.5315241,3.69484024 23.2193451,7.30267703 C24.008422,9.03941267 24.433806,10.9306752 24.4673343,12.8512522 L25.2336672,12.8694948 L26,12.8891408 C25.9779504,10.7343503 25.5085189,8.60995613 24.6238389,6.66137737 Z" id="HkczIAeAogm" fill-rule="nonzero"/>
                </g></g>
                <g id="BJozU0eCoxQ" fill-rule="nonzero">
                    <path d="M7.34047056,0 L40.6595294,0 C42.0759103,0 43.4342799,0.569986235 44.4358124,1.58456824 C45.4373449,2.59915025 46,3.97521875 46,5.41005438 L46,25 L2,25 L2,5.41005438 C2,2.42216385 4.39101011,0 7.34047056,0 Z" id="ry3zLAxCjgX"/>
                    <circle id="Bkaf80xCix7" cx="23.5" cy="13.5" r="2.5"/>
                    <path d="M3.48860191,24 L45.5100225,24 C47.4374838,24 49,25.790861 49,28 L0,28 C-1.49690328e-07,25.7914766 1.56167778,24.0008705 3.48860191,24 Z" id="HyRMUCg0ie7"/>
                </g>
                <g id="BJkmIRxCjeQ" fill-rule="nonzero">
                    <rect id="HJlXLCxRjgQ" x="0" y="14" width="47.4331279" height="1.26274177"/>
                    <rect id="B1W78RxRogX" x="0" y="20" width="47.4331279" height="1.26274177"/>
                    <rect id="ByMQ8RgRieQ" x="5" y="0" width="3.45956651" height="14.3324898"/>
                    <rect id="SyQQU0eAoxQ" x="10" y="0" width="3.45956651" height="14.3324898"/>
                    <rect id="SJE7URgCogm" x="14" y="0" width="3.45956651" height="14.3324898"/>
                    <rect id="B1Sm8ReRolQ" x="19" y="0" width="3.45956651" height="14.3324898"/>
                    <rect id="BkUXU0xRseX" x="27" y="0" width="3.45956651" height="14.3324898"/>
                    <rect id="ByD78AeAigQ" x="32" y="0" width="3.45956651" height="14.3324898"/>
                    <rect id="HyumLClCixX" x="5" y="2" width="3.45956651" height="1"/>
                    <rect id="rytmLCeRilX" x="5" y="11" width="3.45956651" height="1"/>
                    <rect id="H1qQ8CxAilQ" x="10" y="2" width="3.45956651" height="1"/>
                    <rect id="rJj7IAxRol7" x="10" y="11" width="3.45956651" height="1"/>
                    <rect id="Hk3QIRgRjg7" x="14" y="2" width="3.45956651" height="1"/>
                    <rect id="BJaXUCe0jgQ" x="14" y="11" width="3.45956651" height="1"/>
                    <rect id="BkR7U0gRogm" x="19" y="2" width="3.45956651" height="1"/>
                    <rect id="S114LAxRigQ" x="19" y="11" width="3.45956651" height="1"/>
                    <rect id="Hkx48AxRslQ" x="23" y="2" width="3.45956651" height="1"/>
                    <rect id="S1ZV80eRjlQ" x="23" y="11" width="3.45956651" height="1"/>
                    <rect id="BJfV80lCslX" x="27" y="2" width="3.45956651" height="1"/>
                    <rect id="S1XN8RlRieQ" x="27" y="11" width="3.45956651" height="1"/>
                    <rect id="SJEVLReRjlm" x="32" y="2" width="3.45956651" height="1"/>
                    <rect id="ByH4URx0ixX" x="32" y="11" width="3.45956651" height="1"/>
                    <rect id="HyIVIRlAseQ" x="23" y="0" width="3.45956651" height="14.3324898"/>
                    <rect id="SJvNI0xAoe7" x="38" y="0" width="3.45956651" height="14.3324898"/>
                    <rect id="H1d4U0gAogX" x="38" y="3" width="3.45956651" height="1"/>
                    <rect id="rktNLRlRsgm" x="38" y="11" width="3.45956651" height="1"/>
                </g>
                <g id="Sy5NLRe0jlQ" fill-rule="nonzero">
                    <path d="M13.4601848,11.6935196 L13.4601848,9 L0,9 L0,21.4519683 C2.80933697e-14,22.9013448 1.1749518,24.0762966 2.62432831,24.0762966 L10.8358565,24.0762966 C12.285233,24.0762966 13.4601848,22.9013448 13.4601848,21.4519683 L13.4601848,18.6867862 C15.3933692,18.6867862 16.9605248,17.1196306 16.9605248,15.1864462 C16.9605248,13.2532619 15.3933692,11.6861063 13.4601848,11.6861063 L13.4601848,11.6935196 Z M13.4601848,17.3474398 L13.4601848,13.0378083 C14.2469824,13.0111525 14.9856941,13.415693 15.3869897,14.0929837 C15.7882852,14.7702745 15.7882852,15.6125025 15.3869897,16.2897932 C14.9856941,16.967084 14.2469824,17.3716244 13.4601848,17.3449686 L13.4601848,17.3474398 Z" id="ryj4IAxAseQ"/>
                    <path d="M13.1952502,12 C11.9029299,12 10.7378598,12.778475 10.2433102,13.9724232 C9.74876066,15.1663715 10.0221247,16.5406654 10.9359331,17.4544738 C11.8497416,18.3682822 13.2240355,18.6416463 14.4179837,18.1470967 C15.611932,17.6525472 16.390407,16.4874771 16.390407,15.1951568 C16.390407,13.4305204 14.9598865,12 13.1952502,12 Z M13.1952502,17.1621675 C12.1034411,17.1621675 11.218355,16.2770813 11.218355,15.1852723 C11.218355,14.0934633 12.1034411,13.2083772 13.1952502,13.2083772 C14.2870592,13.2083772 15.1721453,14.0934633 15.1721453,15.1852723 C15.1721453,16.2770813 14.2870592,17.1621675 13.1952502,17.1621675 Z" id="S13EIAlCsx7"/>
                    <path d="M13.1952502,12 C11.9029299,12 10.7378598,12.778475 10.2433102,13.9724232 C9.74876066,15.1663715 10.0221247,16.5406654 10.9359331,17.4544738 C11.8497416,18.3682822 13.2240355,18.6416463 14.4179837,18.1470967 C15.611932,17.6525472 16.390407,16.4874771 16.390407,15.1951568 C16.390407,13.4305204 14.9598865,12 13.1952502,12 Z M13.1952502,17.1621675 C12.1034411,17.1621675 11.218355,16.2770813 11.218355,15.1852723 C11.218355,14.0934633 12.1034411,13.2083772 13.1952502,13.2083772 C14.2870592,13.2083772 15.1721453,14.0934633 15.1721453,15.1852723 C15.1721453,16.2770813 14.2870592,17.1621675 13.1952502,17.1621675 Z" id="H1TV8AeRoxX"/>
                    <path d="M1,10 L13.2913456,10 L13.2913456,21.3671471 C13.2913456,22.6977894 12.2126469,23.7764881 10.8820046,23.7764881 L3.40934096,23.7764881 C2.07869869,23.7764881 1,22.6977894 1,21.3671471 L1,10 Z" id="ryCV80xCoxX"/>
                    <path d="M3.58957239,0.323835844 C3.37617701,0.330502389 3.17686664,0.431969484 3.04592623,0.600601165 C2.8853035,0.892193199 3.17689553,1.22332314 3.44377638,1.42348377 C3.93800016,1.79415161 4.45446402,2.16481945 4.7905362,2.67634107 C5.12660837,3.18786269 5.23039537,3.91190054 4.86466976,4.40612432 C4.38774381,5.05355748 3.24608686,5.19441126 3.13488651,5.99011156 C3.06322406,6.50163318 3.50555435,6.93902123 3.955298,7.1960176 C5.06235928,7.83109516 6.49066602,7.99913125 7.29130856,8.99252106 C7.62243849,8.31049224 8.36624529,7.91511321 9.10510985,7.7569616 C9.84397442,7.59880998 10.6124924,7.6012811 11.3637126,7.48760963 C11.6148028,7.4830326 11.8483687,7.35797368 11.9913768,7.15153746 C12.2014219,6.726505 11.6034111,6.21498338 11.8109851,5.78995092 C11.9691367,5.46376323 12.4287648,5.49094553 12.764837,5.35997623 C13.3134254,5.14746 13.5382972,4.44319111 13.3826167,3.87730487 C13.2269362,3.31141863 12.7870771,2.86661723 12.3249778,2.50336274 C11.0894184,1.51491517 9.58203581,0.949028934 8.0672399,0.526467597 C7.36297101,0.33372032 6.53514616,0.0322438099 5.80369496,0.00259038268 C5.07224375,-0.0270630445 4.29631241,0.205222135 3.58957239,0.323835844 Z" id="S1yBUCgAieQ"/>
                </g>
                <g id="S1lrLRlRjgQ" fill-rule="nonzero">
                    <g id="HybHLRgCol7">
                        <path d="M10.5510204,18.6586207 L10.5622449,18.6413793 C10.5854422,18.6045977 10.6082653,18.5662835 10.6307143,18.5264368 L10.6430612,18.5045977 C10.6647619,18.4670498 10.6853401,18.4287356 10.7047959,18.3896552 L10.714898,18.3701149 C10.7373469,18.3252874 10.7586735,18.2804598 10.7777551,18.2333333 C10.8181916,18.1392716 10.8534175,18.0429502 10.8832653,17.9448276 L10.8944898,17.9068966 C10.9045918,17.8712644 10.9146939,17.8356322 10.9236735,17.8 L10.934898,17.7494253 C10.942381,17.7172414 10.9491156,17.6846743 10.955102,17.6517241 C10.955102,17.6333333 10.9618367,17.6149425 10.9652041,17.5965517 C10.9685714,17.5781609 10.9753061,17.5321839 10.9797959,17.4988506 C10.9842857,17.4655172 10.9797959,17.4609195 10.9865306,17.4425287 C10.9932653,17.4241379 10.9932653,17.3724138 10.9955102,17.3367816 C10.9955102,17.3206897 10.9955102,17.3034483 10.9955102,17.2873563 C10.9955102,17.2356322 10.9955102,17.1827586 10.9955102,17.1310345 L10.9955102,7.63793103 L9.44091837,7.63793103 L9.44091837,2.98505747 L7.5327551,2.98505747 L7.5327551,7.63793103 L6.2172449,7.63793103 L6.2172449,0.955172414 L4.30908163,0.955172414 L4.30908163,7.63793103 L3.59183673,7.63793103 L3.59183673,0 L1.68367347,0 L1.68367347,7.63793103 L0,7.63793103 L0,17.1321839 C0,18.6816092 1.25826531,19.9367816 2.80612245,19.9367816 L8.19387755,19.9367816 C9.08699542,19.9404073 9.92927908,19.5117009 10.4657143,18.7804598 C10.4934014,18.7398467 10.5218367,18.6992337 10.5510204,18.6586207 Z" id="ByzSUCl0jxm"/>
                        <rect id="S1mHLCg0igm" x="1.90816327" y="4.48275862" width="1.79591837" height="11.4942529"/>
                        <rect id="ry4rI0e0igm" x="1.90816327" y="0.689655172" width="1.79591837" height="3.79310345"/>
                        <rect id="HySBL0lRseQ" x="4.37755102" y="5.40229885" width="1.79591837" height="11.4942529"/>
                        <rect id="Hy8HLRg0jl7" x="4.37755102" y="1.6091954" width="1.79591837" height="3.79310345"/>
                        <rect id="BkvrICgCoem" x="7.40816327" y="7.35632184" width="1.79591837" height="11.4942529"/>
                        <rect id="r1drL0xCie7" x="7.40816327" y="3.56321839" width="1.79591837" height="3.79310345"/>
                        <path d="M0.336734694,8.04597701 L10.6632653,8.04597701 L10.6632653,17.183908 C10.6632653,18.6757117 9.48230212,19.8850575 8.0255102,19.8850575 L2.9744898,19.8850575 C1.51769788,19.8850575 0.336734694,18.6757117 0.336734694,17.183908 L0.336734694,8.04597701 Z" id="HJFHIAx0se7"/>
                        <path d="M0.336734694,8.04597701 L0.336734694,8.50574713 L10.2142857,8.50574713 L10.2142857,17.6436782 C10.2152084,18.2476446 10.0175124,18.8343369 9.65306122,19.3091954 C10.2913466,18.7978015 10.6639945,18.0138174 10.6632653,17.183908 L10.6632664,8.04597701 L0.336734694,8.04597701 Z" id="BJqrICeCoxX"/>
                    </g>
                </g>
                <rect id="BJjrICxCjgQ" fill-rule="nonzero" x="0" y="240" width="356" height="4"/>
            </g>
        </g>
    </g>
<script>(function(){var a=document.querySelector('#SkLAlRsl7'),b=a.querySelectorAll('style'),c=function(d){b.forEach(function(f){var g=f.textContent;g&amp;&amp;(f.textContent=g.replace(/transform-box:[^;\r\n]*/gi,'transform-box: '+d))})};c('initial'),window.requestAnimationFrame(function(){return c('fill-box')})})();</script></svg>