<?xml version="1.0" encoding="UTF-8"?>
<svg width="23px" height="22px" viewBox="0 0 23 22" version="1.1" xmlns="http://www.w3.org/2000/svg" xmlns:xlink="http://www.w3.org/1999/xlink">
    <!-- Generator: Sketch 50 (54983) - http://www.bohemiancoding.com/sketch -->
    <title>icon/social/fb</title>
    <desc>Created with Sketch.</desc>
    <defs></defs>
    <g id="Page-1" stroke="none" stroke-width="1" fill="none" fill-rule="evenodd">
        <g id="layout/home/2-copy-2" transform="translate(-651.000000, -438.000000)" fill="#324C5B">
            <g id="Header-Copy">
                <g id="text" transform="translate(442.000000, 270.000000)">
                    <g id="text-header">
                        <g id="social" transform="translate(97.000000, 168.000000)">
                            <g id="icon/social/fb" transform="translate(112.770007, 0.000000)">
                                <path d="M21.0004,20 C21.0004,20.551 20.5514,21 20.0004,21 L14.0004,21 L14.0004,14 L17.0004,14 C17.2454,14 17.4534,13.823 17.4934,13.582 L17.9934,10.582 C18.0184,10.437 17.9774,10.289 17.8814,10.177 C17.7874,10.064 17.6474,10 17.5004,10 L14.0004,10 L14.0004,8.5 C14.0004,8.224 14.2244,8 14.5004,8 L17.5004,8 C17.7764,8 18.0004,7.776 18.0004,7.5 L18.0004,4.5 C18.0004,4.224 17.7764,4 17.5004,4 L14.5004,4 C12.0194,4 10.0004,6.019 10.0004,8.5 L10.0004,10 L8.5214,10 C8.2454,10 8.0214,10.224 8.0214,10.5 L8.0214,13.5 C8.0214,13.776 8.2454,14 8.5214,14 L10.0004,14 L10.0004,21 L2.0004,21 C1.4494,21 1.0004,20.551 1.0004,20 L1.0004,2 C1.0004,1.449 1.4494,1 2.0004,1 L20.0004,1 C20.5514,1 21.0004,1.449 21.0004,2 L21.0004,20 Z M20.0004,0 L2.0004,0 C0.8974,0 0.0004,0.897 0.0004,2 L0.0004,20 C0.0004,21.103 0.8974,22 2.0004,22 L10.5004,22 C10.7764,22 11.0004,21.776 11.0004,21.5 L11.0004,13.5 C11.0004,13.224 10.7764,13 10.5004,13 L9.0214,13 L9.0214,11 L10.5004,11 C10.7764,11 11.0004,10.776 11.0004,10.5 L11.0004,8.5 C11.0004,6.57 12.5704,5 14.5004,5 L17.0004,5 L17.0004,7 L14.5004,7 C13.6734,7 13.0004,7.673 13.0004,8.5 L13.0004,10.5 C13.0004,10.776 13.2244,11 13.5004,11 L16.9104,11 L16.5774,13 L13.5004,13 C13.2244,13 13.0004,13.224 13.0004,13.5 L13.0004,21.5 C13.0004,21.776 13.2244,22 13.5004,22 L20.0004,22 C21.1034,22 22.0004,21.103 22.0004,20 L22.0004,2 C22.0004,0.897 21.1034,0 20.0004,0 Z" id="Fill-67"></path>
                            </g>
                        </g>
                    </g>
                </g>
            </g>
        </g>
    </g>
</svg>