<?xml version="1.0" encoding="UTF-8"?>
<svg width="23px" height="22px" viewBox="0 0 23 22" version="1.1" xmlns="http://www.w3.org/2000/svg" xmlns:xlink="http://www.w3.org/1999/xlink">
    <!-- Generator: Sketch 50 (54983) - http://www.bohemiancoding.com/sketch -->
    <title>icon/social/insta</title>
    <desc>Created with Sketch.</desc>
    <defs></defs>
    <g id="Page-1" stroke="none" stroke-width="1" fill="none" fill-rule="evenodd">
        <g id="layout/home/2-copy-2" transform="translate(-708.000000, -438.000000)" fill="#324C5B">
            <g id="Header-Copy">
                <g id="text" transform="translate(442.000000, 270.000000)">
                    <g id="text-header">
                        <g id="social" transform="translate(97.000000, 168.000000)">
                            <g id="icon/social/insta" transform="translate(169.155010, 0.000000)">
                                <path d="M21.0004,16.022 C21.0004,18.767 18.7674,21 16.0224,21 L5.9784,21 C3.2334,21 1.0004,18.767 1.0004,16.022 L1.0004,5.978 C1.0004,3.233 3.2334,1 5.9784,1 L16.0224,1 C18.7674,1 21.0004,3.233 21.0004,5.978 L21.0004,16.022 Z M16.0224,-1.13686838e-13 L5.9784,-1.13686838e-13 C2.6824,-1.13686838e-13 0.0004,2.682 0.0004,5.978 L0.0004,16.022 C0.0004,19.318 2.6824,22 5.9784,22 L16.0224,22 C19.3184,22 22.0004,19.318 22.0004,16.022 L22.0004,5.978 C22.0004,2.682 19.3184,-1.13686838e-13 16.0224,-1.13686838e-13 Z" id="Fill-28"></path>
                                <path d="M11.0004,16 C8.2434,16 6.0004,13.757 6.0004,11 C6.0004,8.243 8.2434,6 11.0004,6 C13.7574,6 16.0004,8.243 16.0004,11 C16.0004,13.757 13.7574,16 11.0004,16 M11.0004,5 C7.6914,5 5.0004,7.691 5.0004,11 C5.0004,14.309 7.6914,17 11.0004,17 C14.3094,17 17.0004,14.309 17.0004,11 C17.0004,7.691 14.3094,5 11.0004,5" id="Fill-30"></path>
                                <path d="M17.0004,3 C16.4494,3 16.0004,3.449 16.0004,4 C16.0004,4.551 16.4494,5 17.0004,5 C17.5514,5 18.0004,4.551 18.0004,4 C18.0004,3.449 17.5514,3 17.0004,3" id="Fill-32"></path>
                            </g>
                        </g>
                    </g>
                </g>
            </g>
        </g>
    </g>
</svg>