<?xml version="1.0" encoding="UTF-8"?>
<svg width="23px" height="22px" viewBox="0 0 23 22" version="1.1" xmlns="http://www.w3.org/2000/svg" xmlns:xlink="http://www.w3.org/1999/xlink">
    <!-- Generator: Sketch 50 (54983) - http://www.bohemiancoding.com/sketch -->
    <title>icon/social/linkedin</title>
    <desc>Created with Sketch.</desc>
    <defs></defs>
    <g id="Page-1" stroke="none" stroke-width="1" fill="none" fill-rule="evenodd">
        <g id="layout/home/2-copy-2" transform="translate(-820.000000, -438.000000)" fill="#324C5B">
            <g id="Header-Copy">
                <g id="text" transform="translate(442.000000, 270.000000)">
                    <g id="text-header">
                        <g id="social" transform="translate(97.000000, 168.000000)">
                            <g id="icon/social/linkedin" transform="translate(281.925017, 0.000000)">
                                <path d="M5.0004,6 C5.5514,6 6.0004,5.551 6.0004,5 C6.0004,4.449 5.5514,4 5.0004,4 C4.4494,4 4.0004,4.449 4.0004,5 C4.0004,5.551 4.4494,6 5.0004,6 Z M5.0004,3 C6.1034,3 7.0004,3.897 7.0004,5 C7.0004,6.103 6.1034,7 5.0004,7 C3.8974,7 3.0004,6.103 3.0004,5 C3.0004,3.897 3.8974,3 5.0004,3 Z" id="Fill-177"></path>
                                <path d="M4.0004,18 L6.0004,18 L6.0004,9 L4.0004,9 L4.0004,18 Z M6.5004,8 L3.5004,8 C3.2244,8 3.0004,8.224 3.0004,8.5 L3.0004,18.5 C3.0004,18.776 3.2244,19 3.5004,19 L6.5004,19 C6.7764,19 7.0004,18.776 7.0004,18.5 L7.0004,8.5 C7.0004,8.224 6.7764,8 6.5004,8 Z" id="Fill-179"></path>
                                <path d="M18.0004,18 L16.0004,18 L16.0004,13 C16.0004,10.928 14.7444,10 13.5004,10 C12.2564,10 11.0004,10.928 11.0004,13 L11.0004,18 L9.0004,18 L9.0004,9 L11.0004,9 L11.0004,10.001 C11.0004,10.21 11.1304,10.397 11.3264,10.47 C11.5214,10.543 11.7434,10.487 11.8784,10.328 C12.6224,9.467 13.2604,9 14.5004,9 C16.6594,9 18.0004,10.533 18.0004,13 L18.0004,18 Z M14.5004,8 C13.4164,8 12.6504,8.306 12.0004,8.814 L12.0004,8.5 C12.0004,8.224 11.7764,8 11.5004,8 L8.5004,8 C8.2244,8 8.0004,8.224 8.0004,8.5 L8.0004,18.5 C8.0004,18.776 8.2244,19 8.5004,19 L11.5004,19 C11.7764,19 12.0004,18.776 12.0004,18.5 L12.0004,13 C12.0004,11.748 12.5614,11 13.5004,11 C14.4394,11 15.0004,11.748 15.0004,13 L15.0004,18.5 C15.0004,18.776 15.2244,19 15.5004,19 L18.5004,19 C18.7764,19 19.0004,18.776 19.0004,18.5 L19.0004,13 C19.0004,9.962 17.2334,8 14.5004,8 Z" id="Fill-181"></path>
                                <path d="M21.0004,20 C21.0004,20.551 20.5514,21 20.0004,21 L2.0004,21 C1.4494,21 1.0004,20.551 1.0004,20 L1.0004,2 C1.0004,1.449 1.4494,1 2.0004,1 L20.0004,1 C20.5514,1 21.0004,1.449 21.0004,2 L21.0004,20 Z M20.0004,0 L2.0004,0 C0.8974,0 0.0004,0.897 0.0004,2 L0.0004,20 C0.0004,21.103 0.8974,22 2.0004,22 L20.0004,22 C21.1034,22 22.0004,21.103 22.0004,20 L22.0004,2 C22.0004,0.897 21.1034,0 20.0004,0 Z" id="Fill-182"></path>
                            </g>
                        </g>
                    </g>
                </g>
            </g>
        </g>
    </g>
</svg>