<?xml version="1.0" encoding="UTF-8"?>
<svg width="1050px" height="694px" viewBox="0 0 1050 694" version="1.1" xmlns="http://www.w3.org/2000/svg" xmlns:xlink="http://www.w3.org/1999/xlink">
    <!-- Generator: Sketch 50 (54983) - http://www.bohemiancoding.com/sketch -->
    <title>Shape</title>
    <desc>Created with Sketch.</desc>
    <defs></defs>
    <g id="Page-1" stroke="none" stroke-width="1" fill="none" fill-rule="evenodd" opacity="0.1">
        <g id="layout/portfolio/2" transform="translate(-195.000000, -165.000000)" fill="#D9763D" fill-rule="nonzero">
            <path d="M255.455285,579.042071 C291.105285,624.372071 277.255285,690.582071 254.605285,743.622071 C247.015285,761.382071 238.445285,780.162071 241.605285,799.202071 C245.515285,822.482071 266.295285,839.512071 288.115285,848.532071 C327.885285,864.982071 375.485285,861.062071 412.035285,838.322071 C443.615285,818.672071 466.235285,786.722071 498.355285,767.972071 C552.115285,736.592071 620.535285,748.442071 678.905285,770.062071 C720.205285,785.352071 765.355285,805.242071 806.385285,789.262071 C835.255285,778.012071 855.215285,750.642071 866.095285,721.622071 C871.345285,707.622071 875.155285,692.452071 885.185285,681.342071 C891.185285,674.742071 898.925285,670.052071 906.895285,666.102071 C979.665285,630.022071 1071.56528,649.342071 1142.24528,609.332071 C1189.97528,582.332071 1220.53528,531.332071 1234.06528,478.172071 C1247.59528,425.012071 1246.06528,369.272071 1242.58528,314.532071 C1240.14528,275.622071 1235.76528,234.092071 1210.90528,204.062071 C1184.60528,172.302071 1139.47528,160.482071 1098.68528,166.522071 C1057.89528,172.562071 1020.91528,194.082071 988.385285,219.422071 C947.735285,251.102071 910.025285,290.542071 860.115285,303.422071 C826.115285,312.162071 790.365285,307.422071 755.305285,305.722071 C696.695285,302.952071 638.065285,309.112071 579.775285,315.842071 C523.975285,322.292071 467.775285,329.392071 414.615285,347.542071 C377.005285,360.342071 346.865285,383.662071 311.345285,399.912071 C288.195285,410.532071 262.945285,413.462071 241.015285,426.992071 C214.015285,443.652071 189.255285,472.632071 196.175285,506.542071 C202.755285,538.812071 236.535285,554.982071 255.455285,579.042071 Z" id="Shape"></path>
        </g>
    </g>
</svg>