<?xml version="1.0" encoding="UTF-8"?>
<svg width="22px" height="22px" viewBox="0 0 22 22" version="1.1" xmlns="http://www.w3.org/2000/svg" xmlns:xlink="http://www.w3.org/1999/xlink">
    <!-- Generator: Sketch 50 (54983) - http://www.bohemiancoding.com/sketch -->
    <title>icon/tools/ai copy</title>
    <desc>Created with Sketch.</desc>
    <defs></defs>
    <g id="Page-1" stroke="none" stroke-width="1" fill="none" fill-rule="evenodd">
        <g id="layout/portfolio/2" transform="translate(-196.000000, -409.000000)" fill="#324C5B">
            <g id="Group" transform="translate(140.000000, 186.000000)">
                <g id="icon/tools/ps" transform="translate(56.000000, 223.000000)">
                    <path d="M1,21 L21,21 L21,1 L1,1 L1,21 Z M21.5,0 L0.5,0 C0.224,0 0,0.224 0,0.5 L0,21.5 C0,21.776 0.224,22 0.5,22 L21.5,22 C21.776,22 22,21.776 22,21.5 L22,0.5 C22,0.224 21.776,0 21.5,0 Z" id="Fill-584"></path>
                    <path d="M7,6.9453 C8.565,6.7923 9.771,7.0143 10.422,7.5833 C10.811,7.9233 11,8.3863 11,9.0003 C11,9.6663 10.676,10.2163 10.036,10.6363 C9.196,11.1863 7.908,11.3903 7,11.1453 L7,6.9453 Z M6.5,16.0003 C6.776,16.0003 7,15.7763 7,15.5003 L7,12.1703 C8.15,12.3943 9.575,12.1333 10.584,11.4723 C11.497,10.8733 12,9.9953 12,9.0003 C12,8.0933 11.69,7.3633 11.08,6.8303 C9.887,5.7893 7.896,5.8063 6.433,6.0043 C6.185,6.0383 6,6.2503 6,6.5003 L6,11.4883 L6,11.5103 L6,15.5003 C6,15.7763 6.224,16.0003 6.5,16.0003 Z" id="Fill-586"></path>
                    <path d="M14.7686,12.8555 C15.6436,13.1525 15.9996,13.3385 15.9996,14.0005 C15.9996,14.7365 15.6436,14.8875 15.5266,14.9375 C14.9676,15.1745 14.1026,14.8865 13.8476,14.6405 C13.6486,14.4495 13.3326,14.4555 13.1406,14.6525 C12.9486,14.8515 12.9546,15.1685 13.1526,15.3595 C13.5126,15.7075 14.2796,16.0235 15.0416,16.0235 C15.3426,16.0235 15.6436,15.9745 15.9166,15.8575 C16.3216,15.6865 16.9996,15.2165 16.9996,14.0005 C16.9996,12.5565 15.8956,12.1815 15.0896,11.9085 C14.2986,11.6405 13.9996,11.4925 13.9996,11.0005 C13.9996,10.5455 14.1666,10.2535 14.5086,10.1055 C15.0406,9.8775 15.8316,10.0565 16.1566,10.3635 C16.3556,10.5525 16.6726,10.5435 16.8636,10.3435 C17.0536,10.1425 17.0436,9.8265 16.8436,9.6365 C16.1926,9.0205 14.9676,8.8185 14.1126,9.1875 C13.3946,9.4965 12.9996,10.1405 12.9996,11.0005 C12.9996,12.2555 14.0216,12.6025 14.7686,12.8555" id="Fill-587"></path>
                </g>
            </g>
        </g>
    </g>
</svg>