<?xml version="1.0" encoding="UTF-8"?>
<svg width="22px" height="22px" viewBox="0 0 22 22" version="1.1" xmlns="http://www.w3.org/2000/svg" xmlns:xlink="http://www.w3.org/1999/xlink">
    <!-- Generator: Sketch 50 (54983) - http://www.bohemiancoding.com/sketch -->
    <title>icon/tools/ai copy 2</title>
    <desc>Created with Sketch.</desc>
    <defs></defs>
    <g id="Page-1" stroke="none" stroke-width="1" fill="none" fill-rule="evenodd">
        <g id="layout/portfolio/2" transform="translate(-248.000000, -409.000000)" fill="#324C5B">
            <g id="Group" transform="translate(140.000000, 186.000000)">
                <g id="icon/tools/ai" transform="translate(108.000000, 223.000000)">
                    <path d="M1,21 L21,21 L21,1 L1,1 L1,21 Z M21.5,0 L0.5,0 C0.224,0 0,0.224 0,0.5 L0,21.5 C0,21.776 0.224,22 0.5,22 L21.5,22 C21.776,22 22,21.776 22,21.5 L22,0.5 C22,0.224 21.776,0 21.5,0 Z" id="Fill-594"></path>
                    <path d="M9.5,8.0811 L10.807,12.0001 L8.193,12.0001 L9.5,8.0811 Z M6.342,15.9751 C6.607,16.0601 6.887,15.9201 6.974,15.6581 L7.86,13.0001 L11.14,13.0001 L12.026,15.6581 C12.096,15.8671 12.291,16.0001 12.5,16.0001 C12.552,16.0001 12.605,15.9921 12.658,15.9751 C12.92,15.8871 13.062,15.6031 12.974,15.3421 L9.974,6.3421 C9.838,5.9341 9.162,5.9341 9.026,6.3421 L6.026,15.3421 C5.938,15.6031 6.08,15.8871 6.342,15.9751 Z" id="Fill-596"></path>
                    <path d="M15.5,16 C15.776,16 16,15.776 16,15.5 L16,8.5 C16,8.224 15.776,8 15.5,8 C15.224,8 15,8.224 15,8.5 L15,15.5 C15,15.776 15.224,16 15.5,16" id="Fill-597"></path>
                    <path d="M15.5,7 C15.776,7 16,6.776 16,6.5 C16,6.224 15.776,6 15.5,6 C15.224,6 15,6.224 15,6.5 C15,6.776 15.224,7 15.5,7" id="Fill-598"></path>
                </g>
            </g>
        </g>
    </g>
</svg>