<?xml version="1.0" encoding="UTF-8"?>
<svg width="22px" height="22px" viewBox="0 0 22 22" version="1.1" xmlns="http://www.w3.org/2000/svg" xmlns:xlink="http://www.w3.org/1999/xlink">
    <!-- Generator: Sketch 50 (54983) - http://www.bohemiancoding.com/sketch -->
    <title>icon/tools/ai</title>
    <desc>Created with Sketch.</desc>
    <defs></defs>
    <g id="Page-1" stroke="none" stroke-width="1" fill="none" fill-rule="evenodd">
        <g id="layout/portfolio/2" transform="translate(-144.000000, -409.000000)" fill="#324C5B">
            <g id="Group" transform="translate(140.000000, 186.000000)">
                <g id="icon/tools/sketch" transform="translate(4.000000, 223.000000)">
                    <path d="M13.606725,17.251 L18.1488083,8 L20.572475,8 L13.606725,17.251 Z M3.85064167,8 L8.39364167,17.251 L1.42789167,8 L3.85064167,8 Z M3.70030833,7 L1.33255833,7 L3.99639167,2.803 L3.70030833,7 Z M17.1093083,8 L10.999725,20.441 L4.89014167,8 L17.1093083,8 Z M4.671975,6.259 L5.00930833,1.468 L9.74389167,1.095 L4.671975,6.259 Z M16.7123917,7 L5.287975,7 L10.999725,1.184 L16.7123917,7 Z M12.2601417,1.1 L16.9901417,1.468 L17.3283917,6.259 L12.2601417,1.1 Z M20.6668917,7 L18.2991417,7 L18.003975,2.803 L20.6668917,7 Z M21.955725,7.285 C21.944725,7.26 21.9208917,7.246 21.906225,7.224 L21.9181417,7.214 L17.7931417,0.714 C17.712475,0.586 17.583225,0.515 17.448475,0.504 L17.448475,0.5 L11.0290583,0.005 C11.0153083,0.004 11.0006417,0.001 10.9868917,0.002 L10.9676417,0 L4.550975,0.5 L4.550975,0.504 C4.416225,0.515 4.28789167,0.586 4.20630833,0.714 L0.0813083333,7.214 L0.0941416667,7.224 C0.0785583333,7.246 0.0556416667,7.26 0.043725,7.285 C-0.0323583333,7.46 -0.008525,7.667 0.104225,7.816 L10.6458917,21.817 C10.732975,21.933 10.8631417,22 10.999725,22 C11.137225,22 11.266475,21.933 11.354475,21.817 L21.8961417,7.816 C22.007975,7.667 22.0318083,7.46 21.955725,7.285 Z" id="Fill-600"></path>
                </g>
            </g>
        </g>
    </g>
</svg>